<?xml version="1.0" standalone="no"?>
<!DOCTYPE svg PUBLIC "-//W3C//DTD SVG 20010904//EN"
 "http://www.w3.org/TR/2001/REC-SVG-20010904/DTD/svg10.dtd">
<svg version="1.0" xmlns="http://www.w3.org/2000/svg"
 width="769.000000pt" height="769.000000pt" viewBox="0 0 769.000000 769.000000"
 preserveAspectRatio="xMidYMid meet">
<metadata>
Created by potrace 1.11, written by Peter Selinger 2001-2013
</metadata>
<g transform="translate(0.000000,769.000000) scale(0.100000,-0.100000)"
fill="#000000" stroke="none">
<path d="M4448 7385 c-1 -1 -41 -5 -88 -9 -302 -24 -750 -149 -1100 -309 -30
-13 -77 -35 -105 -47 -144 -64 -501 -254 -657 -349 l-36 -22 -33 58 c-59 104
-135 198 -199 243 -199 143 -395 31 -393 -225 1 -133 78 -300 199 -430 l46
-50 -23 40 c-109 192 -144 311 -119 405 27 99 122 98 216 -2 39 -41 106 -146
102 -159 -2 -5 -39 -33 -83 -62 l-80 -52 -1 -2085 c-1 -1147 -2 -2090 -3
-2097 0 -6 -71 -67 -157 -135 -87 -67 -218 -172 -293 -231 -175 -139 -179
-142 -335 -265 -72 -57 -140 -111 -151 -120 -11 -10 -38 -31 -60 -47 -144
-107 -62 -67 176 86 266 171 428 241 635 275 70 11 269 30 279 27 6 -2 27 -29
48 -58 44 -63 124 -127 188 -151 67 -24 189 -24 369 1 73 10 74 10 88 18 6 5
12 6 12 3 0 -9 143 44 185 69 24 13 55 39 69 56 27 32 34 69 14 70 -47 2 -98
10 -146 25 -64 18 -157 67 -157 82 0 5 27 30 60 55 109 82 110 72 -5 158
l-100 74 5 1125 c2 619 4 1222 4 1341 l1 217 73 -20 c81 -22 71 -19 187 -46
97 -23 110 -25 282 -52 311 -47 668 -47 913 0 28 5 65 12 83 15 88 14 239 60
368 112 107 42 299 143 353 184 14 11 53 40 86 65 127 96 268 246 363 386 115
170 208 402 228 568 2 19 6 47 9 61 8 38 8 236 0 289 -68 458 -358 766 -825
876 -36 9 -78 17 -93 19 -15 2 -47 7 -70 11 -44 6 -323 15 -329 9z m-554
-1185 c193 -32 271 -162 197 -325 -83 -181 -318 -328 -606 -380 -77 -14 -357
-15 -412 -2 -11 3 -42 9 -67 12 -27 4 -50 14 -55 24 -5 9 -12 59 -16 111 -3
52 -8 111 -10 130 -2 19 -6 70 -10 113 l-6 77 64 29 c179 81 381 150 542 188
124 28 289 39 379 23z"/>
<path d="M6300 5353 c-168 -58 -346 -256 -589 -651 -28 -46 -51 -86 -51 -89 0
-3 -8 -17 -18 -31 -11 -15 -33 -52 -49 -82 -66 -120 -58 -113 -217 -193 -83
-42 -187 -88 -231 -103 -92 -30 -189 -66 -243 -90 -83 -36 -343 -167 -339
-170 2 -2 57 21 123 51 65 30 173 73 240 95 124 42 506 149 512 144 4 -3 -7
-23 -139 -249 -118 -203 -441 -761 -629 -1085 -84 -146 -199 -344 -255 -440
-56 -96 -162 -278 -235 -405 -73 -126 -140 -242 -149 -257 -15 -26 -106 -182
-141 -243 -10 -16 -41 -70 -70 -120 -29 -49 -61 -105 -71 -123 -11 -18 -27
-45 -36 -60 -26 -42 -133 -184 -160 -213 l-25 -27 -81 30 c-427 158 -661 152
-919 -24 -84 -57 -210 -185 -238 -243 -32 -64 -35 -181 -6 -235 57 -105 217
-198 392 -226 172 -27 490 -24 644 6 30 6 66 14 79 16 40 8 136 42 194 68 124
57 260 172 342 288 13 20 15 20 39 5 60 -40 103 -59 180 -81 76 -22 108 -28
256 -42 30 -2 75 -7 100 -9 306 -29 634 -23 780 14 165 43 321 137 366 222
124 232 -51 454 -356 451 -129 -1 -238 -81 -319 -235 l-30 -57 44 26 c87 51
176 29 189 -47 12 -79 -97 -153 -269 -182 -75 -13 -352 -16 -415 -4 -14 3 -47
8 -75 11 -105 13 -264 45 -290 59 -11 5 -37 21 -57 34 l-38 23 73 147 c39 82
95 202 124 268 215 496 631 1445 686 1565 14 30 78 174 143 320 l117 265 296
447 296 447 115 42 c241 90 440 203 570 326 166 156 254 375 205 509 -41 116
-227 186 -365 137z m-3040 -4353 c30 -5 69 -12 87 -15 18 -3 45 -10 60 -16 15
-6 29 -10 31 -10 42 12 23 -22 -36 -65 -161 -116 -289 -151 -433 -118 -120 27
-150 78 -89 148 71 80 201 107 380 76z"/>
<path d="M4469 3893 c-13 -16 -12 -17 4 -4 16 13 21 21 13 21 -2 0 -10 -8 -17
-17z"/>
</g>
</svg>
